<?xml version="1.0" encoding="UTF-8"?>
<svg xmlns="http://www.w3.org/2000/svg" version="1.1" xmlns:xlink="http://www.w3.org/1999/xlink" viewBox="0 0 290 95">
  <defs>
    <style>
      .cls-1 {
        fill: #fff;
      }

      .cls-2 {
        fill: #1e2132;
      }

      .cls-3 {
        fill: none;
      }

      .cls-4 {
        fill: #f6c684;
      }

      .cls-5 {
        clip-path: url(#clippath);
      }
    </style>
    <clipPath id="clippath">
      <rect class="cls-3" x="-20" y="-15" width="330" height="125"/>
    </clipPath>
  </defs>
  <!-- Generator: Adobe Illustrator 28.7.2, SVG Export Plug-In . SVG Version: 1.2.0 Build 154)  -->
  <g>
    <g id="Calque_1">
      <g class="cls-5">
        <g>
          <rect class="cls-2" width="290" height="95"/>
          <path class="cls-4" d="M4.3,88c-1.1,0-1.6-.5-1.6-1.6V27.1c0-.7.2-1.3.6-1.9L18.4,3.7c.5-.6,1.2-1,2-1h22.9c.9,0,1.6.3,2.1,1l15.2,21.5c.4.6.6,1.2.6,1.9v59.3c0,1.1-.5,1.6-1.6,1.6h-23.4c-1.1,0-1.6-.5-1.6-1.6v-24h-5.4v24c0,1.1-.5,1.6-1.6,1.6H4.3ZM32,40.2c1.8,0,3.3-.6,4.5-1.7s1.7-2.6,1.7-4.4-.6-3.3-1.7-4.5-2.7-1.7-4.5-1.7-3.3.6-4.5,1.7-1.7,2.7-1.7,4.5.6,3.3,1.7,4.4,2.7,1.7,4.5,1.7Z"/>
          <path class="cls-1" d="M78.4,56l14.9-45.6h11.9l14.8,45.6h-10.7l-9.4-31.1c-.2-.8-.4-1.5-.6-2.2-.1-.7-.3-1.2-.4-1.7h-.1c-.1.5-.3,1.1-.4,1.7-.2.6-.4,1.3-.6,2.2l-9,31.1h-10.3ZM87,46.8l1.7-7.2h20.8l1.8,7.2h-24.2ZM122.6,56V10.5h15.8c5.9,0,10.6,1.9,14,5.7,3.4,3.8,5.2,9,5.2,15.8v2.6c0,6.7-1.7,12-5.1,15.8-3.4,3.8-8.1,5.7-14,5.7h-15.8ZM133.1,48.5h4.4c2.9,0,5.1-1.1,6.8-3.2,1.6-2.2,2.4-5.3,2.4-9.6v-4.9c0-4.3-.8-7.4-2.5-9.4-1.6-2-3.9-3.1-6.7-3.1h-4.4v30.2ZM162.8,56V10.5h18.1c4.6,0,8.2,1.3,10.8,3.9,2.6,2.6,4,6.1,4,10.4s-1.4,8-4.2,10.8c-2.8,2.7-6.3,4.1-10.8,4.1h-7.2v16.3h-10.7,0ZM173.5,32.5h5.2c2.2,0,3.8-.7,4.7-2,.9-1.3,1.4-3.1,1.4-5.2s-.5-3.8-1.4-5.2c-.9-1.3-2.5-2-4.7-2h-5.2v14.3h0ZM185.8,56l-8.8-20.1,9.8-2.3,10.8,22.4h-11.7ZM200.6,56V10.5h10.9v45.5h-10.9ZM218,56V10.5h29.6v8.4h-19.2v10.1h16.5v7.6h-16.5v11.1h19.7v8.2h-30ZM251.9,56V10.5h10.9l12.6,25.6c.3.7.6,1.4.8,2.1.3.7.5,1.4.7,2.1h.2c0-.7,0-1.4,0-2.2V10.5h9.1v45.5h-10.7l-12.8-25.8c-.3-.7-.6-1.3-.8-2-.2-.7-.5-1.4-.7-2h-.2c0,.7,0,1.4,0,2.1v27.7h-9.1Z"/>
          <path class="cls-1" d="M83.8,88v-17.1h5.1c2.2,0,4,.7,5.4,2.1,1.4,1.4,2.1,3.4,2.1,5.9v1c0,2.5-.7,4.4-2.1,5.9s-3.2,2.1-5.4,2.1h-5.1,0ZM86.4,86h2.5c1.5,0,2.7-.5,3.6-1.5s1.3-2.5,1.3-4.4v-1.2c0-1.9-.4-3.3-1.3-4.4-.9-1-2.1-1.5-3.6-1.5h-2.5v13h0ZM97.3,88l6.2-17.1h2.6l6.2,17.1h-2.7l-4.4-12.8c0-.3-.2-.5-.2-.8,0-.2-.1-.5-.2-.7h0c0,.2-.1.5-.2.7,0,.2-.1.5-.2.8l-4.4,12.8h-2.5ZM100.2,83.7l.7-2h7.8l.7,2h-9.1ZM118.8,83.3v-.3h2.6v.3c0,1,.3,1.7.9,2.2.6.5,1.5.7,2.6.7s2-.2,2.6-.7.9-1.1.9-1.9-.3-1.4-.9-1.8c-.6-.4-1.7-.9-3.4-1.4-1.8-.5-3.1-1.2-3.9-1.9-.8-.8-1.2-1.8-1.2-3.2s.5-2.5,1.5-3.4c1-.9,2.4-1.3,4.2-1.3s3.2.4,4.2,1.4c1.1.9,1.6,2.1,1.6,3.6v.3h-2.6v-.3c0-.9-.3-1.6-.8-2.1-.6-.5-1.4-.8-2.4-.8s-1.9.2-2.4.7c-.5.4-.8,1.1-.8,1.8s.3,1.3.8,1.7c.6.4,1.7.8,3.4,1.3,1.8.5,3.1,1.2,3.9,2s1.3,1.9,1.3,3.3-.6,2.7-1.6,3.5c-1.1.9-2.6,1.3-4.4,1.3s-3.3-.4-4.5-1.3c-1.1-.9-1.7-2.1-1.7-3.7h0ZM133.7,88v-17.1h2.6v17.1h-2.6ZM140,88v-17.1h2.6v15h7.6v2.1h-10.2ZM149.4,70.9h2.8l4.3,12.5c0,.2.2.4.2.7,0,.2.1.4.2.6h0c0-.2.1-.4.2-.6,0-.2.1-.4.2-.6l4.3-12.5h2.6l-6.1,17.2h-2.6l-6.1-17.2h0ZM163.2,88l6.2-17.1h2.6l6.2,17.1h-2.7l-4.4-12.8c0-.3-.2-.5-.2-.8,0-.2-.1-.5-.2-.7h0c0,.2-.1.5-.2.7,0,.2-.1.5-.2.8l-4.4,12.8h-2.5ZM166.2,83.7l.7-2h7.8l.7,2h-9.1ZM185.6,88v-17.1h10.3v2.1h-7.7v5.5h6.7v2.1h-6.7v7.4h-2.6ZM198.2,88v-17.1h10.6v2.1h-8v5.2h6.9v2.1h-6.9v5.7h8.1v2.1h-10.7ZM211.5,88v-17.1h5.6c1.8,0,3.2.5,4.2,1.4,1,.9,1.5,2.2,1.5,3.7s-.5,2.8-1.5,3.8c-1,.9-2.4,1.4-4.2,1.4h-3.1v6.8h-2.6ZM214.1,79.2h2.9c1.2,0,2-.3,2.5-.9.5-.6.7-1.4.7-2.3,0-.9-.2-1.7-.7-2.2-.5-.6-1.3-.9-2.5-.9h-2.9v6.3ZM220.7,88l-4-7.8,2.6-.3,4.3,8.2h-2.9ZM225.7,88v-17.1h5.6c1.8,0,3.2.5,4.2,1.4s1.5,2.2,1.5,3.7-.5,2.8-1.5,3.8c-1,.9-2.4,1.4-4.2,1.4h-3.1v6.8h-2.6,0ZM228.3,79.2h2.9c1.2,0,2-.3,2.5-.9.5-.6.7-1.4.7-2.3,0-.9-.2-1.7-.7-2.2-.5-.6-1.3-.9-2.5-.9h-2.9v6.3ZM235,88l-4-7.8,2.6-.3,4.3,8.2h-2.9ZM240,88v-17.1h10.6v2.1h-8v5.2h6.9v2.1h-6.9v5.7h8.1v2.1h-10.7ZM253.2,88v-17.1h2.6v17.1h-2.6ZM259.5,88v-17.1h5.6c1.8,0,3.2.5,4.2,1.4,1,.9,1.5,2.2,1.5,3.7s-.5,2.8-1.5,3.8c-1,.9-2.4,1.4-4.2,1.4h-3v6.8h-2.6ZM262.1,79.2h2.9c1.2,0,2-.3,2.5-.9.5-.6.7-1.4.7-2.3s-.2-1.7-.7-2.2-1.3-.9-2.5-.9h-2.9v6.3ZM268.8,88l-4-7.8,2.6-.3,4.3,8.2h-2.9,0ZM271.9,88l6.2-17.1h2.6l6.2,17.1h-2.7l-4.5-12.8c0-.3-.2-.5-.2-.8,0-.2-.1-.5-.2-.7h0c0,.2-.1.5-.2.7,0,.2-.1.5-.2.8l-4.4,12.8h-2.5ZM274.8,83.7l.7-2h7.8l.7,2h-9.1Z"/>
        </g>
      </g>
    </g>
  </g>
</svg>